HIERARCHY
ROOT joint_Root
{
	OFFSET 0.0 0.0 0.0
	CHANNELS 6 Xposition Yposition Zposition Zrotation Xrotation Yrotation 
	JOINT Hips
	{
		OFFSET -0.726466 93.3139 -2.00062
		CHANNELS 6 Xposition Yposition Zposition Zrotation Xrotation Yrotation 
		JOINT Spine
		{
			OFFSET 15.7357 0.0 0.0
			CHANNELS 6 Xposition Yposition Zposition Zrotation Xrotation Yrotation 
			JOINT Chest
			{
				OFFSET 8.98455 -0.406207 0.0
				CHANNELS 6 Xposition Yposition Zposition Zrotation Xrotation Yrotation 
				JOINT Neck
				{
					OFFSET 16.3773 0.0 0.0
					CHANNELS 6 Xposition Yposition Zposition Zrotation Xrotation Yrotation 
					JOINT Head
					{
						OFFSET 6.45672 0.0 0.0
						CHANNELS 6 Xposition Yposition Zposition Zrotation Xrotation Yrotation 
						End Site
						{
							OFFSET 0.0 0.0 0.0
						}
					}
				}
				JOINT Shoulder_L
				{
					OFFSET 12.9942 -0.242716 4.98039
					CHANNELS 6 Xposition Yposition Zposition Zrotation Xrotation Yrotation 
					JOINT UpperArm_L
					{
						OFFSET 5.34809 0.0 0.0
						CHANNELS 6 Xposition Yposition Zposition Zrotation Xrotation Yrotation 
						JOINT LowerArm_L
						{
							OFFSET 24.3286 1.87007e-05 0.0
							CHANNELS 6 Xposition Yposition Zposition Zrotation Xrotation Yrotation 
							JOINT Hand_L
							{
								OFFSET 22.2916 0.0 0.0
								CHANNELS 6 Xposition Yposition Zposition Zrotation Xrotation Yrotation 
								End Site
								{
									OFFSET 0.0 0.0 0.0
								}
							}
						}
					}
				}
				JOINT Shoulder_R
				{
					OFFSET 12.9945 -0.242716 -4.98039
					CHANNELS 6 Xposition Yposition Zposition Zrotation Xrotation Yrotation 
					JOINT UpperArm_R
					{
						OFFSET -5.34813 0.0 0.0
						CHANNELS 6 Xposition Yposition Zposition Zrotation Xrotation Yrotation 
						JOINT LowerArm_R
						{
							OFFSET -24.3289 0.000322201 0.0
							CHANNELS 6 Xposition Yposition Zposition Zrotation Xrotation Yrotation 
							JOINT Hand_R
							{
								OFFSET -22.2915 -0.000108084 0.0
								CHANNELS 6 Xposition Yposition Zposition Zrotation Xrotation Yrotation 
								End Site
								{
									OFFSET 0.0 0.0 0.0
								}
							}
						}
					}
				}
			}
		}
		JOINT UpperLeg_L
		{
			OFFSET -2.19248 -6.46944 0.0
			CHANNELS 6 Xposition Yposition Zposition Zrotation Xrotation Yrotation 
			JOINT LowerLeg_L
			{
				OFFSET 39.0811 0.0 -1.23785e-05
				CHANNELS 6 Xposition Yposition Zposition Zrotation Xrotation Yrotation 
				JOINT Foot_L
				{
					OFFSET 40.9854 0.0 -1.26872e-05
					CHANNELS 6 Xposition Yposition Zposition Zrotation Xrotation Yrotation 
					JOINT Toes_L
					{
						OFFSET 11.7543 0.0 0.0
						CHANNELS 6 Xposition Yposition Zposition Zrotation Xrotation Yrotation 
						End Site
						{
							OFFSET 0.0 0.0 0.0
						}
					}
				}
			}
		}
		JOINT UpperLeg_R
		{
			OFFSET -2.19251 6.46944 0.0
			CHANNELS 6 Xposition Yposition Zposition Zrotation Xrotation Yrotation 
			JOINT LowerLeg_R
			{
				OFFSET -39.0811 -0.00228153 -0.0401928
				CHANNELS 6 Xposition Yposition Zposition Zrotation Xrotation Yrotation 
				JOINT Foot_R
				{
					OFFSET -40.9854 0.0 0.0
					CHANNELS 6 Xposition Yposition Zposition Zrotation Xrotation Yrotation 
					JOINT Toes_R
					{
						OFFSET -11.7543 0.0 0.0
						CHANNELS 6 Xposition Yposition Zposition Zrotation Xrotation Yrotation 
						End Site
						{
							OFFSET 0.0 0.0 0.0
						}
					}
				}
			}
		}
	}
}
MOTION
Frames:	9
Frame Time:	0.0333333
0.000000 0.000000 0.000000 0.000000 0.000000 -0.000000 -0.804793 92.253500 -0.668628 87.935300 -1.251340 3.896550 15.735700 0.000005 -0.000001 83.646500 84.999200 -83.202600 8.984550 -0.406207 -0.000000 2.179080 -1.127650 0.908438 16.377300 -0.000001 -0.000001 2.834400 -3.100400 1.197050 6.456720 -0.000001 -0.000000 3.413490 -2.897030 -1.980070 12.994200 -0.242716 4.980390 -90.071400 0.231687 -72.864100 5.348090 -0.000007 -0.000001 -68.032600 40.232100 -14.705100 24.328600 0.000019 0.000005 0.755862 1.887580 -21.826700 22.291600 -0.000001 0.000005 4.493300 5.462480 -5.091880 12.994500 -0.242716 -4.980390 88.156000 6.115450 -73.184300 -5.348130 -0.000001 -0.000004 -63.035100 38.747200 -18.377800 -24.328900 0.000322 -0.000009 2.374510 6.744570 -19.453900 -22.291500 -0.000108 -0.000004 7.521580 5.356650 -1.574610 -2.192480 -6.469440 -0.000000 -175.349000 -7.004000 -2.578670 39.081100 -0.000007 -0.000012 -0.104916 0.246072 23.091600 40.985400 -0.000006 -0.000013 -0.425360 2.697970 -66.750900 11.754300 -0.000000 0.000003 -0.000033 -0.000396 -16.593000 -2.192510 6.469440 -0.000001 179.728000 15.432700 -179.253000 -39.081100 -0.002282 -0.040193 -0.010119 0.038631 19.185500 -40.985400 0.000008 0.000006 4.407520 6.883850 -66.561400 -11.754300 -0.000006 -0.000006 -0.005527 -0.066475 -19.278200
0.000000 0.000000 0.000000 0.000000 0.000000 -0.000000 -0.802027 92.260300 -0.695787 87.959400 -1.192410 3.877360 15.735700 0.000005 -0.000001 83.325400 84.998100 -82.915800 8.984550 -0.406207 -0.000000 2.174760 -1.181900 0.840949 16.377300 -0.000001 -0.000001 2.789300 -2.974910 1.039030 6.456720 -0.000001 -0.000000 3.353040 -2.686050 -2.259390 12.994200 -0.242716 4.980390 -90.062500 0.201615 -72.780200 5.348090 -0.000007 -0.000001 -68.223700 39.892900 -14.544300 24.328600 0.000019 0.000005 0.796702 1.990310 -21.819900 22.291600 -0.000001 0.000005 4.545420 5.460830 -5.031390 12.994500 -0.242716 -4.980390 88.122100 6.127010 -72.923900 -5.348130 -0.000001 -0.000004 -62.522600 37.485600 -18.142500 -24.328900 0.000322 -0.000009 2.863670 6.619360 -23.465900 -22.291500 -0.000108 -0.000004 6.730220 5.336690 -0.981012 -2.192480 -6.469440 -0.000000 -175.383000 -6.940350 -2.600140 39.081100 -0.000007 -0.000012 -0.105700 0.248499 23.042800 40.985400 -0.000006 -0.000013 -0.420865 2.712480 -66.706100 11.754300 -0.000000 0.000003 -0.000026 -0.000319 -16.590000 -2.192510 6.469440 -0.000001 179.730000 15.411800 -179.292000 -39.081100 -0.002282 -0.040193 -0.008707 0.034580 19.182800 -40.985400 0.000008 0.000006 4.442140 6.768350 -66.544500 -11.754300 -0.000006 -0.000006 -0.005538 -0.066581 -19.282500
0.000000 0.000000 0.000000 0.000000 0.000000 -0.000000 -0.774633 92.266800 -0.708269 87.967100 -1.165600 3.816170 15.735700 0.000005 -0.000001 82.950500 85.014400 -82.567400 8.984550 -0.406207 -0.000000 2.134580 -1.241700 0.788716 16.377300 -0.000001 -0.000001 2.790750 -2.838410 0.845973 6.456720 -0.000001 -0.000000 3.227600 -2.405220 -2.638570 12.994200 -0.242716 4.980390 -90.063200 0.202652 -72.685000 5.348090 -0.000007 -0.000001 -68.311600 39.718600 -14.406400 24.328600 0.000019 0.000005 0.771117 1.925850 -21.825100 22.291600 -0.000001 0.000005 4.514220 5.462140 -5.079330 12.994500 -0.242716 -4.980390 88.083200 6.076860 -72.456500 -5.348130 -0.000001 -0.000004 -61.106100 36.040200 -18.578300 -24.328900 0.000322 -0.000009 3.358090 6.072780 -29.025700 -22.291500 -0.000108 -0.000004 6.684220 5.348630 -1.335580 -2.192480 -6.469440 -0.000000 -175.417000 -6.991540 -2.670210 39.081100 -0.000007 -0.000012 -0.103618 0.243917 23.016300 40.985400 -0.000006 -0.000013 -0.392633 2.739540 -66.673600 11.754300 -0.000000 0.000003 -0.000031 -0.000371 -16.592000 -2.192510 6.469440 -0.000001 179.734000 15.376000 -179.355000 -39.081100 -0.002282 -0.040193 -0.008082 0.032829 19.157000 -40.985400 0.000008 0.000006 4.448540 6.717630 -66.518900 -11.754300 -0.000006 -0.000006 -0.005601 -0.067169 -19.306500
0.000000 0.000000 0.000000 0.000000 0.000000 -0.000000 -0.743475 92.277300 -0.742336 87.954700 -1.156250 3.719070 15.735700 0.000005 -0.000001 82.154200 85.051300 -81.795700 8.984550 -0.406207 -0.000000 2.043700 -1.368070 0.740830 16.377300 -0.000001 -0.000001 2.891630 -2.666050 0.671528 6.456720 -0.000001 -0.000000 3.128540 -1.948080 -3.177570 12.994200 -0.242716 4.980390 -90.072100 0.229884 -72.581600 5.348090 -0.000007 -0.000001 -68.355300 39.587800 -14.212800 24.328600 0.000019 0.000005 0.764994 1.903950 -21.893500 22.291600 -0.000001 0.000005 4.511450 5.461480 -5.054740 12.994500 -0.242716 -4.980390 88.093000 5.816650 -71.812500 -5.348130 -0.000001 -0.000004 -58.906600 34.220100 -20.228700 -24.328900 0.000322 -0.000009 4.001580 5.699970 -35.164100 -22.291500 -0.000108 -0.000004 7.102790 5.354290 -1.506470 -2.192480 -6.469440 -0.000000 -175.440000 -7.023040 -2.780980 39.081100 -0.000007 -0.000012 -0.102575 0.241829 22.984900 40.985400 -0.000006 -0.000013 -0.362055 2.764620 -66.631900 11.754300 -0.000000 0.000003 -0.000030 -0.000361 -16.591700 -2.192510 6.469440 -0.000001 179.782000 15.317700 -179.468000 -39.081100 -0.002282 -0.040193 -0.006239 0.027593 19.113900 -40.985400 0.000008 0.000006 4.499470 6.640700 -66.470600 -11.754300 -0.000006 -0.000006 -0.005578 -0.066953 -19.297700
0.000000 0.000000 0.000000 0.000000 0.000000 -0.000000 -0.696860 92.276400 -0.768705 87.956200 -1.262930 3.759020 15.735700 0.000005 -0.000001 81.411300 85.047800 -81.095600 8.984550 -0.406207 -0.000000 2.032100 -1.493930 0.657196 16.377300 -0.000001 -0.000001 3.112350 -2.424050 0.551445 6.456720 -0.000001 -0.000000 3.024940 -1.414290 -3.776510 12.994200 -0.242716 4.980390 -90.066200 0.209200 -72.447200 5.348090 -0.000007 -0.000001 -68.495400 39.323400 -14.031600 24.328600 0.000019 0.000005 0.834441 2.081310 -21.851500 22.291600 -0.000001 0.000005 4.544980 5.461360 -5.050540 12.994500 -0.242716 -4.980390 88.134700 5.491920 -71.206800 -5.348130 -0.000001 -0.000004 -56.086800 31.395600 -22.941700 -24.328900 0.000322 -0.000009 5.627940 6.323230 -41.810300 -22.291500 -0.000108 -0.000004 7.631870 5.350250 -1.386070 -2.192480 -6.469440 -0.000000 -175.469000 -7.108150 -2.756380 39.081100 -0.000007 -0.000012 -0.101289 0.238530 23.007900 40.985400 -0.000006 -0.000013 -0.330719 2.735060 -66.635900 11.754300 -0.000000 0.000003 -0.000032 -0.000382 -16.592500 -2.192510 6.469440 -0.000001 179.748000 15.224500 -179.470000 -39.081100 -0.002282 -0.040193 -0.005991 0.026823 19.148700 -40.985400 0.000008 0.000006 4.439930 6.655560 -66.450800 -11.754300 -0.000006 -0.000006 -0.005598 -0.067142 -19.305400
0.000000 0.000000 0.000000 0.000000 0.000000 -0.000000 -0.626074 92.280400 -0.815755 87.937500 -1.498270 3.772230 15.735700 0.000005 -0.000001 81.279700 85.060700 -81.004900 8.984550 -0.406207 -0.000000 2.002800 -1.510550 0.575585 16.377300 -0.000001 -0.000001 3.339630 -2.172250 0.410844 6.456720 -0.000001 -0.000000 3.020710 -0.977182 -4.391500 12.994200 -0.242716 4.980390 -90.071100 0.223767 -72.370200 5.348090 -0.000007 -0.000001 -68.551200 39.179300 -13.959200 24.328600 0.000019 0.000005 0.859579 2.158340 -21.720300 22.291600 -0.000001 0.000005 4.796440 5.461610 -5.059390 12.994500 -0.242716 -4.980390 88.208500 5.116600 -70.672900 -5.348130 -0.000001 -0.000004 -52.972100 27.497700 -26.388200 -24.328900 0.000322 -0.000009 8.232520 7.274550 -48.802200 -22.291500 -0.000108 -0.000004 9.035100 5.332000 -0.846724 -2.192480 -6.469440 -0.000000 -175.489000 -7.241520 -2.742280 39.081100 -0.000007 -0.000012 -0.102961 0.242395 23.014100 40.985400 -0.000006 -0.000013 -0.305908 2.636880 -66.632200 11.754300 -0.000000 0.000003 -0.000029 -0.000355 -16.591400 -2.192510 6.469440 -0.000001 179.741000 15.053500 -179.527000 -39.081100 -0.002282 -0.040193 -0.004627 0.022855 19.178500 -40.985400 0.000008 0.000006 4.454100 6.715380 -66.410100 -11.754300 -0.000006 -0.000006 -0.005578 -0.066951 -19.297600
0.000000 0.000000 0.000000 0.000000 0.000000 -0.000000 -0.559150 92.283300 -0.851696 87.914300 -1.712440 3.852450 15.735700 0.000005 -0.000001 81.316300 85.067500 -81.092400 8.984550 -0.406207 -0.000000 1.989430 -1.499710 0.473516 16.377300 -0.000001 -0.000001 3.572270 -1.908670 0.330922 6.456720 -0.000001 -0.000000 3.112270 -0.619720 -4.925130 12.994200 -0.242716 4.980390 -90.072600 0.226754 -72.242900 5.348090 -0.000007 -0.000001 -68.533600 39.088200 -13.985100 24.328600 0.000019 0.000005 0.896221 2.255460 -21.676400 22.291600 -0.000001 0.000005 4.767540 5.459220 -4.972330 12.994500 -0.242716 -4.980390 88.330300 4.679010 -70.335400 -5.348130 -0.000001 -0.000004 -50.163300 22.272500 -30.061600 -24.328900 0.000322 -0.000009 10.593000 7.303890 -55.789600 -22.291500 -0.000108 -0.000004 10.341800 5.319780 -0.490162 -2.192480 -6.469440 -0.000000 -175.509000 -7.363860 -2.662100 39.081100 -0.000007 -0.000012 -0.100046 0.235359 23.029500 40.985400 -0.000006 -0.000013 -0.276747 2.517940 -66.638200 11.754300 -0.000000 0.000003 -0.000026 -0.000320 -16.590100 -2.192510 6.469440 -0.000001 179.710000 14.950100 -179.499000 -39.081100 -0.002282 -0.040193 -0.002222 0.015916 19.207100 -40.985400 0.000008 0.000006 4.536500 6.827420 -66.395300 -11.754300 -0.000006 -0.000006 -0.005585 -0.067019 -19.300400
0.000000 0.000000 0.000000 0.000000 0.000000 -0.000000 -0.484163 92.283600 -0.876793 87.869600 -1.853040 3.936040 15.735700 0.000005 -0.000001 81.526100 85.085000 -81.343400 8.984550 -0.406207 -0.000000 1.959680 -1.456870 0.389859 16.377300 -0.000001 -0.000001 3.790420 -1.746930 0.272705 6.456720 -0.000001 -0.000000 3.196730 -0.431051 -5.322390 12.994200 -0.242716 4.980390 -90.093800 0.290454 -72.097500 5.348090 -0.000007 -0.000001 -68.399800 39.120300 -14.113400 24.328600 0.000019 0.000005 0.873203 2.201670 -21.639100 22.291600 -0.000001 0.000005 4.901360 5.459410 -4.979470 12.994500 -0.242716 -4.980390 88.439700 4.311210 -70.082600 -5.348130 -0.000001 -0.000004 -47.985800 15.703500 -33.701800 -24.328900 0.000322 -0.000009 12.776100 6.669700 -62.876200 -22.291500 -0.000108 -0.000004 11.539000 5.302630 -0.005227 -2.192480 -6.469440 -0.000000 -175.507000 -7.417190 -2.591840 39.081100 -0.000007 -0.000012 -0.099789 0.234254 23.073300 40.985400 -0.000006 -0.000013 -0.234333 2.451300 -66.665400 11.754300 -0.000000 0.000003 -0.000032 -0.000384 -16.592500 -2.192510 6.469440 -0.000001 179.673000 14.944400 -179.440000 -39.081100 -0.002282 -0.040193 -0.002544 0.016842 19.204800 -40.985400 0.000008 0.000006 4.513460 6.966330 -66.357900 -11.754300 -0.000006 -0.000006 -0.005520 -0.066416 -19.275800
0.000000 0.000000 0.000000 0.000000 0.000000 -0.000000 -0.420683 92.284600 -0.905600 87.865900 -1.828180 3.966060 15.735700 0.000005 -0.000001 81.798700 85.098700 -81.675300 8.984550 -0.406207 -0.000000 1.938440 -1.403740 0.270296 16.377300 -0.000001 -0.000001 3.854570 -1.678470 0.255035 6.456720 -0.000001 -0.000000 3.241960 -0.386088 -5.581100 12.994200 -0.242716 4.980390 -90.107700 0.331672 -72.016300 5.348090 -0.000007 -0.000001 -68.337100 38.862800 -14.217300 24.328600 0.000019 0.000005 0.940801 2.351300 -21.813700 22.291600 -0.000001 0.000005 4.862850 5.459910 -4.997670 12.994500 -0.242716 -4.980390 88.570500 3.917180 -69.932800 -5.348130 -0.000001 -0.000004 -47.106600 7.934940 -37.471500 -24.328900 0.000322 -0.000009 14.819100 5.752580 -69.248400 -22.291500 -0.000108 -0.000004 13.161100 5.280640 0.605600 -2.192480 -6.469440 -0.000000 -175.556000 -7.364030 -2.604000 39.081100 -0.000007 -0.000012 -0.098941 0.231960 23.100300 40.985400 -0.000006 -0.000013 -0.201230 2.383540 -66.658100 11.754300 -0.000000 0.000003 -0.000024 -0.000302 -16.589300 -2.192510 6.469440 -0.000001 179.627000 14.958500 -179.426000 -39.081100 -0.002282 -0.040193 -0.001899 0.014988 19.209000 -40.985400 0.000008 0.000006 4.460550 6.987320 -66.333600 -11.754300 -0.000006 -0.000006 -0.005696 -0.068048 -19.342300
